<svg xmlns="http://www.w3.org/2000/svg" viewBox="0 0 128 128" role="img" aria-label="Patchdeck">
  <defs>
    <radialGradient id="glow" cx="48%" cy="42%" r="70%">
      <stop offset="0" stop-color="#ffcf24"/>
      <stop offset="0.45" stop-color="#ff9f0a"/>
      <stop offset="0.72" stop-color="#f04f2b"/>
      <stop offset="1" stop-color="#4f5655"/>
    </radialGradient>
    <linearGradient id="trace" x1="24" y1="18" x2="100" y2="108" gradientUnits="userSpaceOnUse">
      <stop offset="0" stop-color="#ffb000"/>
      <stop offset="0.55" stop-color="#ff7a00"/>
      <stop offset="1" stop-color="#ff3f2f"/>
    </linearGradient>
    <filter id="soft" x="-20%" y="-20%" width="140%" height="140%">
      <feGaussianBlur stdDeviation="1.2"/>
    </filter>
  </defs>
  <rect width="128" height="128" rx="22" fill="url(#glow)"/>
  <g fill="none" stroke="url(#trace)" stroke-width="3.2" stroke-linecap="round" stroke-linejoin="round" opacity="0.95">
    <path d="M28 34h32l15 15h24c12 0 22 10 22 22s-10 22-22 22H72L58 107v11"/>
    <path d="M38 48h58c8 0 15 7 15 15s-7 15-15 15H62L50 90v27"/>
    <path d="M34 62h26v18L45 95v23"/>
    <path d="M48 20h16l20 20h27"/>
    <path d="M29 80h17"/>
    <path d="M85 62h25"/>
    <path d="M76 92h28"/>
    <path d="M58 107l-9-9"/>
  </g>
  <g fill="none" stroke="#ff7a00" stroke-width="1.4" filter="url(#soft)" opacity="0.55">
    <path d="M28 34h32l15 15h24c12 0 22 10 22 22s-10 22-22 22H72L58 107v11"/>
    <path d="M38 48h58c8 0 15 7 15 15s-7 15-15 15H62L50 90v27"/>
  </g>
  <g fill="#fff" stroke="#ff7a00" stroke-width="3">
    <circle cx="28" cy="34" r="6"/>
    <circle cx="48" cy="20" r="6"/>
    <circle cx="34" cy="62" r="6"/>
    <circle cx="29" cy="80" r="6"/>
    <circle cx="85" cy="62" r="7"/>
    <circle cx="76" cy="92" r="7"/>
    <circle cx="111" cy="40" r="6"/>
    <circle cx="45" cy="118" r="6"/>
  </g>
  <g fill="#ff7a00">
    <circle cx="28" cy="34" r="2.6"/>
    <circle cx="48" cy="20" r="2.6"/>
    <circle cx="34" cy="62" r="2.6"/>
    <circle cx="29" cy="80" r="2.6"/>
    <circle cx="85" cy="62" r="3.1"/>
    <circle cx="76" cy="92" r="3.1"/>
    <circle cx="111" cy="40" r="2.6"/>
    <circle cx="45" cy="118" r="2.6"/>
  </g>
</svg>
