<?xml version="1.0" encoding="UTF-8"?>
<svg xmlns="http://www.w3.org/2000/svg" width="1024" height="1024" viewBox="0 0 1024 1024" role="img" aria-label="Patchdeck logo">
  <defs>
    <linearGradient id="patchdeck-gradient" x1="207" y1="194" x2="820" y2="777" gradientUnits="userSpaceOnUse">
      <stop offset="0" stop-color="#ffcf00"/>
      <stop offset="0.45" stop-color="#ff8a00"/>
      <stop offset="0.72" stop-color="#ff2b45"/>
      <stop offset="1" stop-color="#d900ff"/>
    </linearGradient>
  </defs>
  <path d="M 816.0 308.0 L 804.0 303.0 L 795.0 303.0 L 783.0 308.0 L 776.0 315.0 L 772.0 323.0 L 717.0 323.0 L 703.0 306.0 L 689.0 294.0 L 677.0 286.0 L 653.0 275.0 L 638.0 271.0 L 618.0 268.0 L 513.0 268.0 L 456.0 211.0 L 373.0 211.0 L 368.0 202.0 L 361.0 195.0 L 347.0 190.0 L 338.0 191.0 L 329.0 195.0 L 322.0 202.0 L 318.0 211.0 L 319.0 229.0 L 329.0 241.0 L 337.0 245.0 L 343.0 246.0 L 353.0 245.0 L 365.0 238.0 L 372.0 227.0 L 439.0 227.0 L 473.0 262.0 L 472.0 263.0 L 330.0 263.0 L 329.0 264.0 L 328.0 263.0 L 327.0 264.0 L 329.0 267.0 L 357.0 295.0 L 559.0 295.0 L 560.0 296.0 L 562.0 291.0 L 569.0 285.0 L 574.0 283.0 L 581.0 283.0 L 589.0 286.0 L 594.0 291.0 L 597.0 297.0 L 596.0 309.0 L 593.0 314.0 L 588.0 318.0 L 581.0 321.0 L 574.0 321.0 L 567.0 318.0 L 562.0 313.0 L 559.0 307.0 L 559.0 299.0 L 558.0 305.0 L 353.0 305.0 L 310.0 263.0 L 286.0 263.0 L 285.0 264.0 L 284.0 263.0 L 281.0 264.0 L 272.0 263.0 L 270.0 264.0 L 261.0 252.0 L 251.0 246.0 L 247.0 245.0 L 231.0 246.0 L 223.0 250.0 L 217.0 256.0 L 213.0 263.0 L 211.0 270.0 L 211.0 279.0 L 213.0 286.0 L 217.0 293.0 L 222.0 298.0 L 235.0 304.0 L 247.0 304.0 L 258.0 299.0 L 266.0 291.0 L 270.0 283.0 L 275.0 284.0 L 279.0 283.0 L 283.0 284.0 L 289.0 283.0 L 290.0 284.0 L 291.0 283.0 L 335.0 327.0 L 337.0 328.0 L 379.0 328.0 L 408.0 357.0 L 408.0 390.0 L 405.0 391.0 L 411.0 392.0 L 422.0 401.0 L 426.0 409.0 L 427.0 420.0 L 422.0 432.0 L 416.0 438.0 L 407.0 442.0 L 397.0 442.0 L 391.0 440.0 L 380.0 431.0 L 376.0 421.0 L 376.0 412.0 L 380.0 402.0 L 390.0 393.0 L 397.0 391.0 L 395.0 390.0 L 396.0 389.0 L 395.0 386.0 L 396.0 385.0 L 396.0 365.0 L 395.0 364.0 L 396.0 362.0 L 371.0 337.0 L 345.0 337.0 L 345.0 350.0 L 344.0 351.0 L 343.0 350.0 L 288.0 350.0 L 284.0 343.0 L 275.0 335.0 L 267.0 332.0 L 251.0 332.0 L 238.0 339.0 L 233.0 345.0 L 230.0 352.0 L 229.0 367.0 L 234.0 378.0 L 246.0 388.0 L 261.0 391.0 L 267.0 390.0 L 276.0 386.0 L 282.0 381.0 L 288.0 371.0 L 344.0 371.0 L 345.0 372.0 L 345.0 424.0 L 344.0 426.0 L 321.0 447.0 L 234.0 447.0 L 232.0 443.0 L 224.0 435.0 L 218.0 432.0 L 211.0 430.0 L 198.0 431.0 L 189.0 435.0 L 180.0 445.0 L 177.0 453.0 L 178.0 470.0 L 184.0 480.0 L 193.0 487.0 L 203.0 490.0 L 211.0 490.0 L 218.0 488.0 L 225.0 484.0 L 231.0 478.0 L 236.0 469.0 L 329.0 469.0 L 362.0 437.0 L 364.0 438.0 L 363.0 439.0 L 364.0 440.0 L 364.0 562.0 L 363.0 564.0 L 314.0 610.0 L 304.0 600.0 L 295.0 596.0 L 286.0 595.0 L 279.0 596.0 L 272.0 599.0 L 260.0 611.0 L 257.0 619.0 L 256.0 627.0 L 257.0 634.0 L 260.0 641.0 L 268.0 650.0 L 281.0 656.0 L 293.0 656.0 L 303.0 652.0 L 311.0 645.0 L 316.0 636.0 L 317.0 629.0 L 334.0 629.0 L 341.0 623.0 L 342.0 624.0 L 342.0 698.0 L 363.0 715.0 L 363.0 603.0 L 373.0 594.0 L 374.0 595.0 L 373.0 598.0 L 373.0 633.0 L 374.0 634.0 L 373.0 663.0 L 374.0 664.0 L 373.0 665.0 L 402.0 690.0 L 402.0 747.0 L 403.0 747.0 L 424.0 727.0 L 424.0 672.0 L 396.0 648.0 L 396.0 579.0 L 395.0 578.0 L 396.0 577.0 L 395.0 576.0 L 396.0 575.0 L 395.0 574.0 L 396.0 573.0 L 396.0 551.0 L 395.0 550.0 L 396.0 549.0 L 395.0 548.0 L 396.0 547.0 L 396.0 511.0 L 453.0 456.0 L 453.0 361.0 L 454.0 360.0 L 453.0 359.0 L 454.0 351.0 L 453.0 346.0 L 455.0 344.0 L 508.0 344.0 L 509.0 345.0 L 510.0 344.0 L 524.0 344.0 L 525.0 345.0 L 533.0 344.0 L 534.0 345.0 L 598.0 345.0 L 611.0 348.0 L 629.0 357.0 L 643.0 370.0 L 652.0 387.0 L 654.0 395.0 L 655.0 411.0 L 651.0 430.0 L 644.0 443.0 L 633.0 454.0 L 619.0 462.0 L 598.0 467.0 L 460.0 467.0 L 408.0 516.0 L 408.0 644.0 L 436.0 668.0 L 436.0 718.0 L 435.0 719.0 L 437.0 719.0 L 470.0 688.0 L 470.0 660.0 L 466.0 655.0 L 432.0 625.0 L 432.0 546.0 L 476.0 504.0 L 514.0 504.0 L 516.0 498.0 L 524.0 490.0 L 537.0 486.0 L 544.0 487.0 L 551.0 490.0 L 556.0 494.0 L 561.0 501.0 L 563.0 507.0 L 562.0 521.0 L 553.0 533.0 L 545.0 537.0 L 536.0 538.0 L 523.0 533.0 L 515.0 524.0 L 512.0 515.0 L 511.0 516.0 L 480.0 516.0 L 445.0 550.0 L 445.0 626.0 L 470.0 648.0 L 470.0 557.0 L 471.0 556.0 L 472.0 557.0 L 608.0 556.0 L 642.0 550.0 L 660.0 544.0 L 678.0 535.0 L 691.0 526.0 L 702.0 516.0 L 716.0 499.0 L 724.0 486.0 L 735.0 458.0 L 739.0 441.0 L 741.0 424.0 L 740.0 389.0 L 739.0 391.0 L 724.0 391.0 L 722.0 398.0 L 715.0 406.0 L 706.0 410.0 L 699.0 410.0 L 689.0 406.0 L 682.0 399.0 L 679.0 392.0 L 679.0 382.0 L 681.0 376.0 L 688.0 368.0 L 693.0 365.0 L 706.0 364.0 L 715.0 368.0 L 724.0 379.0 L 734.0 378.0 L 738.0 379.0 L 735.0 362.0 L 728.0 342.0 L 729.0 339.0 L 771.0 339.0 L 776.0 348.0 L 788.0 358.0 L 794.0 360.0 L 805.0 360.0 L 814.0 356.0 L 824.0 346.0 L 827.0 339.0 L 828.0 332.0 L 826.0 321.0 L 822.0 314.0 Z M 762.0 350.0 L 742.0 350.0 L 749.0 372.0 L 753.0 398.0 L 752.0 439.0 L 744.0 471.0 L 736.0 489.0 L 727.0 504.0 L 715.0 519.0 L 700.0 533.0 L 684.0 544.0 L 670.0 551.0 L 654.0 557.0 L 629.0 563.0 L 606.0 566.0 L 559.0 566.0 L 558.0 567.0 L 557.0 566.0 L 544.0 566.0 L 543.0 567.0 L 541.0 566.0 L 540.0 567.0 L 539.0 566.0 L 528.0 566.0 L 527.0 567.0 L 525.0 566.0 L 511.0 566.0 L 510.0 567.0 L 509.0 566.0 L 483.0 566.0 L 482.0 567.0 L 483.0 568.0 L 483.0 583.0 L 596.0 583.0 L 597.0 582.0 L 615.0 582.0 L 639.0 579.0 L 661.0 574.0 L 681.0 567.0 L 705.0 555.0 L 719.0 545.0 L 734.0 531.0 L 750.0 510.0 L 761.0 488.0 L 769.0 463.0 L 773.0 439.0 L 774.0 410.0 L 771.0 381.0 Z M 507.0 244.0 L 522.0 258.0 L 619.0 259.0 L 654.0 265.0 L 671.0 271.0 L 689.0 280.0 L 712.0 297.0 L 728.0 314.0 L 753.0 314.0 L 737.0 296.0 L 713.0 276.0 L 689.0 262.0 L 662.0 252.0 L 639.0 247.0 L 612.0 244.0 L 509.0 244.0 L 508.0 243.0 Z M 350.0 464.0 L 332.0 480.0 L 326.0 487.0 L 326.0 579.0 L 349.0 557.0 L 349.0 465.0 Z M 374.0 678.0 L 373.0 678.0 L 373.0 770.0 L 392.0 753.0 L 392.0 695.0 Z M 331.0 381.0 L 315.0 381.0 L 315.0 438.0 L 314.0 439.0 L 332.0 423.0 L 332.0 382.0 Z M 286.0 611.0 L 295.0 614.0 L 300.0 620.0 L 301.0 624.0 L 300.0 631.0 L 298.0 634.0 L 290.0 639.0 L 283.0 639.0 L 279.0 637.0 L 275.0 633.0 L 273.0 628.0 L 274.0 619.0 L 280.0 613.0 Z M 257.0 347.0 L 266.0 349.0 L 271.0 354.0 L 273.0 359.0 L 271.0 368.0 L 266.0 373.0 L 260.0 375.0 L 250.0 372.0 L 245.0 363.0 L 245.0 358.0 L 247.0 354.0 L 252.0 349.0 Z M 204.0 446.0 L 212.0 447.0 L 218.0 452.0 L 220.0 456.0 L 220.0 463.0 L 218.0 468.0 L 215.0 471.0 L 207.0 474.0 L 200.0 472.0 L 193.0 463.0 L 193.0 456.0 L 195.0 452.0 Z M 237.0 261.0 L 247.0 262.0 L 251.0 265.0 L 254.0 270.0 L 253.0 281.0 L 247.0 287.0 L 244.0 288.0 L 238.0 288.0 L 232.0 285.0 L 228.0 280.0 L 227.0 276.0 L 228.0 269.0 L 233.0 263.0 Z M 800.0 318.0 L 807.0 321.0 L 810.0 324.0 L 812.0 329.0 L 811.0 337.0 L 807.0 342.0 L 803.0 344.0 L 793.0 343.0 L 787.0 337.0 L 786.0 333.0 L 787.0 326.0 L 791.0 321.0 Z M 339.0 207.0 L 349.0 206.0 L 355.0 210.0 L 357.0 213.0 L 358.0 219.0 L 357.0 223.0 L 353.0 228.0 L 349.0 230.0 L 341.0 230.0 L 334.0 224.0 L 333.0 214.0 Z M 532.0 501.0 L 526.0 508.0 L 526.0 516.0 L 532.0 523.0 L 542.0 524.0 L 548.0 519.0 L 550.0 515.0 L 549.0 507.0 L 543.0 501.0 L 540.0 500.0 Z M 400.0 404.0 L 393.0 407.0 L 389.0 416.0 L 391.0 423.0 L 395.0 427.0 L 403.0 429.0 L 408.0 427.0 L 412.0 423.0 L 413.0 412.0 L 408.0 406.0 Z M 696.0 377.0 L 691.0 383.0 L 691.0 390.0 L 698.0 397.0 L 706.0 397.0 L 712.0 390.0 L 712.0 383.0 L 707.0 377.0 L 704.0 376.0 Z" fill="url(#patchdeck-gradient)" fill-rule="evenodd"/>
  <path d="M 398.0 391.0 L 390.0 394.0 L 381.0 402.0 L 377.0 412.0 L 377.0 421.0 L 381.0 431.0 L 386.0 436.0 L 397.0 441.0 L 407.0 441.0 L 416.0 437.0 L 421.0 432.0 L 425.0 424.0 L 426.0 413.0 L 423.0 404.0 L 417.0 397.0 L 408.0 392.0 Z M 537.0 487.0 L 536.0 488.0 L 531.0 488.0 L 524.0 491.0 L 517.0 498.0 L 513.0 509.0 L 513.0 515.0 L 516.0 524.0 L 523.0 532.0 L 532.0 536.0 L 539.0 537.0 L 540.0 536.0 L 545.0 536.0 L 553.0 532.0 L 556.0 529.0 L 561.0 521.0 L 562.0 507.0 L 559.0 499.0 L 555.0 494.0 L 547.0 489.0 Z M 680.0 382.0 L 680.0 392.0 L 683.0 399.0 L 689.0 405.0 L 699.0 409.0 L 706.0 409.0 L 715.0 405.0 L 721.0 398.0 L 724.0 390.0 L 739.0 390.0 L 739.0 385.0 L 737.0 379.0 L 724.0 380.0 L 715.0 369.0 L 706.0 365.0 L 696.0 365.0 L 691.0 367.0 L 684.0 373.0 Z M 574.0 284.0 L 569.0 286.0 L 563.0 291.0 L 560.0 297.0 L 560.0 307.0 L 563.0 313.0 L 567.0 317.0 L 574.0 320.0 L 581.0 320.0 L 591.0 315.0 L 594.0 311.0 L 596.0 306.0 L 596.0 297.0 L 593.0 291.0 L 589.0 287.0 L 581.0 284.0 Z M 400.0 403.0 L 408.0 405.0 L 414.0 412.0 L 414.0 421.0 L 408.0 428.0 L 403.0 430.0 L 395.0 428.0 L 390.0 423.0 L 388.0 416.0 L 392.0 407.0 L 396.0 404.0 Z M 532.0 500.0 L 535.0 499.0 L 543.0 500.0 L 550.0 507.0 L 551.0 515.0 L 549.0 519.0 L 542.0 525.0 L 532.0 524.0 L 525.0 516.0 L 525.0 508.0 Z M 696.0 376.0 L 699.0 375.0 L 707.0 376.0 L 713.0 383.0 L 713.0 390.0 L 706.0 398.0 L 698.0 398.0 L 690.0 390.0 L 690.0 383.0 Z" fill="#ffffff" fill-rule="evenodd"/>
</svg>
