<svg xmlns="http://www.w3.org/2000/svg" viewBox="0 0 24 24" role="img" aria-label="Settings">
  <path fill="none" stroke="#dbeafe" stroke-width="2" stroke-linecap="round" stroke-linejoin="round" d="M12 15.5a3.5 3.5 0 1 0 0-7 3.5 3.5 0 0 0 0 7Z"/>
  <path fill="none" stroke="#dbeafe" stroke-width="2" stroke-linecap="round" stroke-linejoin="round" d="M19.4 15a1.8 1.8 0 0 0 .36 1.98l.05.05a2.15 2.15 0 0 1-3.04 3.04l-.05-.05a1.8 1.8 0 0 0-1.98-.36 1.8 1.8 0 0 0-1.09 1.65V21.4a2.15 2.15 0 0 1-4.3 0v-.09a1.8 1.8 0 0 0-1.09-1.65 1.8 1.8 0 0 0-1.98.36l-.05.05a2.15 2.15 0 0 1-3.04-3.04l.05-.05A1.8 1.8 0 0 0 4.6 15a1.8 1.8 0 0 0-1.65-1.09H2.86a2.15 2.15 0 0 1 0-4.3h.09A1.8 1.8 0 0 0 4.6 8.52a1.8 1.8 0 0 0-.36-1.98l-.05-.05a2.15 2.15 0 1 1 3.04-3.04l.05.05a1.8 1.8 0 0 0 1.98.36A1.8 1.8 0 0 0 10.35 2.2v-.09a2.15 2.15 0 0 1 4.3 0v.09a1.8 1.8 0 0 0 1.09 1.65 1.8 1.8 0 0 0 1.98-.36l.05-.05a2.15 2.15 0 1 1 3.04 3.04l-.05.05a1.8 1.8 0 0 0-.36 1.98 1.8 1.8 0 0 0 1.65 1.09h.09a2.15 2.15 0 0 1 0 4.3h-.09A1.8 1.8 0 0 0 19.4 15Z"/>
</svg>
